<svg xmlns="http://www.w3.org/2000/svg" viewBox="0 0 210 44" fill="none">
  
  <rect x="0" y="6" width="32" height="32" rx="7" fill="#F59E0B"></rect>
  <g transform="translate(0 6)">
    <path d="M7 8 h18 a3 3 0 0 1 3 3 v8 a3 3 0 0 1 -3 3 h-10 l-5 4 v-4 h-3 a3 3 0 0 1 -3 -3 v-8 a3 3 0 0 1 3 -3 z" fill="#1A1407"></path>
    <rect x="11.5" y="14" width="2" height="3" rx="1" fill="#F59E0B"></rect>
    <rect x="15.5" y="11.5" width="2" height="8" rx="1" fill="#F59E0B"></rect>
    <rect x="19.5" y="13" width="2" height="5" rx="1" fill="#F59E0B"></rect>
  </g>
  
  <text x="44" y="30" font-family="Inter, system-ui, sans-serif" font-weight="700" font-size="22" letter-spacing="-0.035em" fill="#0C120E">ContentGenie</text>
</svg>